<svg width="32" height="32" viewBox="0 0 32 32" fill="none" xmlns="http://www.w3.org/2000/svg">
<path d="M17.8663 2.66675H7.99967C7.29243 2.66675 6.61415 2.9477 6.11406 3.4478C5.61396 3.94789 5.33301 4.62617 5.33301 5.33341V26.6667C5.33301 27.374 5.61396 28.0523 6.11406 28.5524C6.61415 29.0525 7.29243 29.3334 7.99967 29.3334H23.9997C24.7069 29.3334 25.3852 29.0525 25.8853 28.5524C26.3854 28.0523 26.6663 27.374 26.6663 26.6667V16.8001" stroke="#54AC2A" stroke-width="2" stroke-linecap="round" stroke-linejoin="round"/>
<path d="M2.66699 8H8.00033" stroke="#54AC2A" stroke-width="2" stroke-linecap="round" stroke-linejoin="round"/>
<path d="M2.66699 13.3333H8.00033" stroke="#54AC2A" stroke-width="2" stroke-linecap="round" stroke-linejoin="round"/>
<path d="M2.66699 18.6667H8.00033" stroke="#54AC2A" stroke-width="2" stroke-linecap="round" stroke-linejoin="round"/>
<path d="M2.66699 24H8.00033" stroke="#54AC2A" stroke-width="2" stroke-linecap="round" stroke-linejoin="round"/>
<path d="M28.5036 7.50137C29.0348 6.97023 29.3332 6.24985 29.3332 5.4987C29.3332 4.74756 29.0348 4.02718 28.5036 3.49604C27.9725 2.9649 27.2521 2.6665 26.501 2.6665C25.7498 2.6665 25.0295 2.9649 24.4983 3.49604L17.8183 10.1787C17.5013 10.4955 17.2693 10.8871 17.1436 11.3174L16.0276 15.144C15.9942 15.2588 15.9922 15.3804 16.0218 15.4962C16.0515 15.6119 16.1117 15.7176 16.1962 15.8021C16.2807 15.8866 16.3864 15.9469 16.5022 15.9765C16.618 16.0062 16.7396 16.0042 16.8543 15.9707L20.681 14.8547C21.1112 14.7291 21.5028 14.497 21.8196 14.18L28.5036 7.50137Z" stroke="#54AC2A" stroke-width="2" stroke-linecap="round" stroke-linejoin="round"/>
</svg>
